<svg xmlns="http://www.w3.org/2000/svg" width="165.748" height="31.416" viewBox="0 0 165.748 31.416">
  <path id="Path_1" data-name="Path 1" d="M-81.158-31.416V0H-57.31V-5.808H-74.25v-7.7h15.224v-5.368H-74.25v-6.732h16.588v-5.808ZM-42.438,0-32.01-31.416h-7.128L-46.222-9.328h-.088l-7-22.088H-60.39L-50.226,0Zm8.712-31.416V0H-9.878V-5.808h-16.94v-7.7h15.224v-5.368H-26.818v-6.732H-10.23v-5.808Zm24.112,0V0h6.468V-21.032h.088L10.01,0h6.908V-31.416H10.45V-10.34h-.088L-2.75-31.416Zm35.156,5.808V0H32.45V-25.608h9.416v-5.808H16.126v5.808Zm15.532-5.808V0h22.22V-5.808H47.982V-31.416ZM66.022-12.232V0H72.93V-12.056l11.66-19.36h-7.7l-7.3,12.408L62.238-31.416H54.494Z" transform="translate(81.158 31.416)" fill="#1175d9"/>
</svg>
